<?xml version="1.0" encoding="UTF-8" standalone="no" ?>
<!DOCTYPE svg PUBLIC "-//W3C//DTD SVG 1.1//EN" "http://www.w3.org/Graphics/SVG/1.1/DTD/svg11.dtd">
<svg xmlns="http://www.w3.org/2000/svg" xmlns:xlink="http://www.w3.org/1999/xlink" version="1.1" width="1080" height="1080" viewBox="-23.57 -51.43 1080 1080" xml:space="preserve">
<desc>Created with Fabric.js 5.2.4</desc>
<defs>
</defs>
<rect x="0" y="0" width="100%" height="100%" fill="transparent"></rect>
<g transform="matrix(1 0 0 1 540 540)" id="a950714b-c7ad-49f8-8dac-bd7cb1068fd2"  >
<rect style="stroke: none; stroke-width: 1; stroke-dasharray: none; stroke-linecap: butt; stroke-dashoffset: 0; stroke-linejoin: miter; stroke-miterlimit: 4; fill: rgb(255,255,255); fill-rule: nonzero; opacity: 1; visibility: hidden;" vector-effect="non-scaling-stroke"  x="-540" y="-540" rx="0" ry="0" width="1080" height="1080" />
</g>
<g transform="matrix(1 0 0 1 540 540)" id="afbfb5c7-2eb3-43be-b1b7-871916f08740"  >
</g>
<g transform="matrix(7.5 0 0 7.5 520.89 504.59)" id="34b136ba-5c33-4a39-b647-6adf7b9f2a74"  >
<circle style="stroke: rgb(0,0,0); stroke-width: 0; stroke-dasharray: none; stroke-linecap: butt; stroke-dashoffset: 0; stroke-linejoin: miter; stroke-miterlimit: 4; fill: rgb(255,255,255); fill-rule: nonzero; opacity: 1;" vector-effect="non-scaling-stroke"  cx="0" cy="0" r="35" />
</g>
<g transform="matrix(18.48 0 0 12.94 523.14 586.01)"  >
<g style=""   >
		<g transform="matrix(1 0 0 1 0 0.5)"  >
<path style="stroke: none; stroke-width: 1; stroke-dasharray: none; stroke-linecap: butt; stroke-dashoffset: 0; stroke-linejoin: miter; stroke-miterlimit: 4; fill: rgb(111,185,236); fill-rule: evenodd; opacity: 1;" vector-effect="non-scaling-stroke"  transform=" translate(-12, -12.5)" d="M 4.58167 6.01037 C 5.27244 4.99469 6.71529 5.03259 7.44359 5.90937 C 8.42557 7.09155 9.80993 8.24983 12.0002 8.24983 C 14.2279 8.24983 15.5911 7.31995 16.5187 6.15371 C 17.2401 5.24674 18.7776 5.10103 19.5337 6.17693 C 20.1521 7.05691 20.8281 7.75783 22.1624 8.05353 C 22.5668 8.14315 22.822 8.54363 22.7324 8.94803 C 22.6428 9.35244 22.2423 9.60762 21.8379 9.518 C 19.9969 9.11001 19.0392 8.08213 18.3064 7.0394 C 18.2578 6.97023 18.171 6.91916 18.04 6.9215 C 17.904 6.92393 17.7732 6.98622 17.6927 7.08746 C 16.5174 8.56506 14.7413 9.74983 12.0002 9.74983 C 9.1773 9.74983 7.41088 8.21753 6.28974 6.86782 C 6.2245 6.78928 6.1275 6.7479 6.02885 6.74989 C 5.93349 6.75182 5.86412 6.79199 5.822 6.85393 C 5.07583 7.95107 4.11857 9.0845 2.16243 9.518 C 1.75803 9.60762 1.35754 9.35244 1.26793 8.94803 C 1.17831 8.54363 1.43349 8.14315 1.83789 8.05353 C 3.2498 7.74063 3.92606 6.97435 4.58167 6.01037 Z M 4.58167 16.0104 C 5.27244 14.9947 6.71529 15.0326 7.44359 15.9094 C 8.42557 17.0915 9.80993 18.2498 12.0002 18.2498 C 14.2279 18.2498 15.5911 17.3199 16.5187 16.1537 C 17.2401 15.2467 18.7776 15.101 19.5337 16.1769 C 20.1521 17.0569 20.8281 17.7578 22.1624 18.0535 C 22.5668 18.1431 22.822 18.5436 22.7324 18.948 C 22.6428 19.3524 22.2423 19.6076 21.8379 19.518 C 19.9969 19.11 19.0392 18.0821 18.3064 17.0394 C 18.2578 16.9702 18.171 16.9192 18.04 16.9215 C 17.904 16.9239 17.7732 16.9862 17.6927 17.0875 C 16.5174 18.5651 14.7413 19.7498 12.0002 19.7498 C 9.1773 19.7498 7.41088 18.2175 6.28974 16.8678 C 6.2245 16.7893 6.1275 16.7479 6.02885 16.7499 C 5.93349 16.7518 5.86412 16.792 5.822 16.8539 C 5.07583 17.9511 4.11857 19.0845 2.16243 19.518 C 1.75803 19.6076 1.35754 19.3524 1.26793 18.948 C 1.17831 18.5436 1.43349 18.1431 1.83789 18.0535 C 3.2498 17.7406 3.92606 16.9744 4.58167 16.0104 Z" stroke-linecap="round" />
</g>
		<g transform="matrix(1 0 0 1 0 0.5)"  >
<path style="stroke: none; stroke-width: 1; stroke-dasharray: none; stroke-linecap: butt; stroke-dashoffset: 0; stroke-linejoin: miter; stroke-miterlimit: 4; fill: rgb(111,185,236); fill-rule: nonzero; opacity: 0.5;" vector-effect="non-scaling-stroke"  transform=" translate(-12, -12.5)" d="M 4.58167 11.0104 C 5.27244 9.99469 6.71529 10.0326 7.44359 10.9094 C 8.42557 12.0915 9.80993 13.2498 12.0002 13.2498 C 14.2279 13.2498 15.5911 12.3199 16.5187 11.1537 C 17.2401 10.2467 18.7776 10.101 19.5337 11.1769 C 20.1521 12.0569 20.8281 12.7578 22.1624 13.0535 C 22.5668 13.1431 22.822 13.5436 22.7324 13.948 C 22.6428 14.3524 22.2423 14.6076 21.8379 14.518 C 19.9969 14.11 19.0392 13.0821 18.3064 12.0394 C 18.2578 11.9702 18.171 11.9192 18.04 11.9215 C 17.904 11.9239 17.7732 11.9862 17.6927 12.0875 C 16.5174 13.5651 14.7413 14.7498 12.0002 14.7498 C 9.1773 14.7498 7.41088 13.2175 6.28974 11.8678 C 6.2245 11.7893 6.1275 11.7479 6.02885 11.7499 C 5.93349 11.7518 5.86412 11.792 5.822 11.8539 C 5.07583 12.9511 4.11857 14.0845 2.16243 14.518 C 1.75803 14.6076 1.35754 14.3524 1.26793 13.948 C 1.17831 13.5436 1.43349 13.1431 1.83789 13.0535 C 3.2498 12.7406 3.92606 11.9744 4.58167 11.0104 Z" stroke-linecap="round" />
</g>
</g>
</g>
<g transform="matrix(0 21.62 -21.62 0 521.22 413.61)"  >
<path style="stroke: rgb(0,0,0); stroke-width: 0; stroke-dasharray: none; stroke-linecap: butt; stroke-dashoffset: 0; stroke-linejoin: miter; stroke-miterlimit: 4; fill: rgb(240,203,0); fill-rule: nonzero; opacity: 1;" vector-effect="non-scaling-stroke"  transform=" translate(-4, -8)" d="M 0 8 C 0 12.4183 3.58172 16 8 16 L 8 0 C 3.58172 0 0 3.58172 0 8 Z" stroke-linecap="round" />
</g>
<g transform="matrix(0.62 0 0 0.62 520.64 507.31)" id="989d4923-40e5-469a-b726-6088ff90531c"  >
<polygon style="stroke: rgb(0,0,0); stroke-width: 0; stroke-dasharray: none; stroke-linecap: butt; stroke-dashoffset: 0; stroke-linejoin: miter; stroke-miterlimit: 4; fill: rgb(188,108,42); fill-rule: nonzero; opacity: 1;" vector-effect="non-scaling-stroke"  points="48,-101.34 48,-256 -48,-256 -48,-101.34 -200,-101.34 -200,-5.34 -48,-5.34 -48,256 48,256 48,-5.34 200,-5.34 200,-101.34 " />
</g>
<g transform="matrix(0.52 0 0 0.83 519.57 286.89)" id="99bba1a0-6500-4582-9fd5-34e5c019c7f5"  >
<circle style="stroke: rgb(0,0,0); stroke-width: 0; stroke-dasharray: none; stroke-linecap: butt; stroke-dashoffset: 0; stroke-linejoin: miter; stroke-miterlimit: 4; fill: rgb(240,203,0); fill-rule: nonzero; opacity: 1;" vector-effect="non-scaling-stroke"  cx="0" cy="0" r="35" />
</g>
<g transform="matrix(0 0 0 0 0 0)"  >
<g style=""   >
</g>
</g>
<g transform="matrix(0.4 0.33 -0.53 0.64 675.57 348.72)" id="99bba1a0-6500-4582-9fd5-34e5c019c7f5"  >
<circle style="stroke: rgb(0,0,0); stroke-width: 0; stroke-dasharray: none; stroke-linecap: butt; stroke-dashoffset: 0; stroke-linejoin: miter; stroke-miterlimit: 4; fill: rgb(240,203,0); fill-rule: nonzero; opacity: 1;" vector-effect="non-scaling-stroke"  cx="0" cy="0" r="35" />
</g>
<g transform="matrix(0 -0.52 0.83 0 303.75 478.71)" id="99bba1a0-6500-4582-9fd5-34e5c019c7f5"  >
<circle style="stroke: rgb(0,0,0); stroke-width: 0; stroke-dasharray: none; stroke-linecap: butt; stroke-dashoffset: 0; stroke-linejoin: miter; stroke-miterlimit: 4; fill: rgb(240,203,0); fill-rule: nonzero; opacity: 1;" vector-effect="non-scaling-stroke"  cx="0" cy="0" r="35" />
</g>
<g transform="matrix(0 0.52 -0.83 0 736.21 480.53)" id="99bba1a0-6500-4582-9fd5-34e5c019c7f5"  >
<circle style="stroke: rgb(0,0,0); stroke-width: 0; stroke-dasharray: none; stroke-linecap: butt; stroke-dashoffset: 0; stroke-linejoin: miter; stroke-miterlimit: 4; fill: rgb(240,203,0); fill-rule: nonzero; opacity: 1;" vector-effect="non-scaling-stroke"  cx="0" cy="0" r="35" />
</g>
<g transform="matrix(0.37 -0.37 0.59 0.59 367.39 348.71)" id="99bba1a0-6500-4582-9fd5-34e5c019c7f5"  >
<circle style="stroke: rgb(0,0,0); stroke-width: 0; stroke-dasharray: none; stroke-linecap: butt; stroke-dashoffset: 0; stroke-linejoin: miter; stroke-miterlimit: 4; fill: rgb(240,203,0); fill-rule: nonzero; opacity: 1;" vector-effect="non-scaling-stroke"  cx="0" cy="0" r="35" />
</g>
<g transform="matrix(6.2 0 0 6.2 521.32 504.13)"  >
<path style="stroke: rgb(19,151,225); stroke-width: 15; stroke-dasharray: none; stroke-linecap: butt; stroke-dashoffset: 0; stroke-linejoin: miter; stroke-miterlimit: 4; fill: rgb(19,83,225); fill-rule: nonzero; opacity: 1;" vector-effect="non-scaling-stroke"  transform=" translate(-50, -50)" d="M 50 92.875 C 26.358 92.875 7.125 73.642 7.125 50 C 7.125 26.358000000000004 26.358 7.125 50 7.125 C 73.642 7.125 92.875 26.358 92.875 50 C 92.875 73.642 73.642 92.875 50 92.875 z M 50 9.125 C 27.461 9.125 9.125 27.461 9.125 50 C 9.125 72.538 27.461 90.875 50 90.875 C 72.538 90.875 90.875 72.538 90.875 50 C 90.875 27.461 72.538 9.125 50 9.125 z" stroke-linecap="round" />
</g>
<g transform="matrix(0 0 0 0 0 0)"  >
<g style=""   >
</g>
</g>
</svg>