<?xml version="1.0" encoding="UTF-8" standalone="no" ?>
<!DOCTYPE svg PUBLIC "-//W3C//DTD SVG 1.1//EN" "http://www.w3.org/Graphics/SVG/1.1/DTD/svg11.dtd">
<svg xmlns="http://www.w3.org/2000/svg" xmlns:xlink="http://www.w3.org/1999/xlink" version="1.1" width="1080" height="1080" viewBox="0 0 1080 1080" xml:space="preserve">
<desc>Created with Fabric.js 5.2.4</desc>
<defs>
</defs>
<g transform="matrix(1 0 0 1 540 540)" id="52633478-887c-4f31-86e2-b5406bf8c432"  >
<rect style="stroke: none; stroke-width: 1; stroke-dasharray: none; stroke-linecap: butt; stroke-dashoffset: 0; stroke-linejoin: miter; stroke-miterlimit: 4; fill: rgb(255,255,255); fill-rule: nonzero; opacity: 1; visibility: hidden;" vector-effect="non-scaling-stroke"  x="-540" y="-540" rx="0" ry="0" width="1080" height="1080" />
</g>
<g transform="matrix(1 0 0 1 540 540)" id="9d58b9c5-d231-4886-bd9e-f9ac1c23dfe1"  >
</g>
<g transform="matrix(5.97 0 0 8.63 476.9 513.56)" id="bb71847d-b700-4580-a806-40fe3824acf0"  >
<rect style="stroke: rgb(0,0,0); stroke-width: 0; stroke-dasharray: none; stroke-linecap: butt; stroke-dashoffset: 0; stroke-linejoin: miter; stroke-miterlimit: 4; fill: rgb(255,255,255); fill-rule: nonzero; opacity: 1;" vector-effect="non-scaling-stroke"  x="-33.0835" y="-33.0835" rx="0" ry="0" width="66.167" height="66.167" />
</g>
<g transform="matrix(3.09 0 0 3.33 550.9 554.34)" id="SVGRepo_iconCarrier"  >
<path style="stroke: rgb(202,159,2); stroke-width: 1; stroke-dasharray: none; stroke-linecap: butt; stroke-dashoffset: 0; stroke-linejoin: miter; stroke-miterlimit: 4; fill: rgb(202,159,2); fill-rule: nonzero; opacity: 1;"  transform=" translate(-105, -128)" d="M 75.7 66.3 L 36.8 66.3 L 36.8 55.9 L 75.69999999999999 55.9 L 75.69999999999999 66.3 z M 126 55.9 L 91.7 55.9 L 91.7 91 L 126 91 L 126 55.9 z M 208 254 L 128 254 L 96.5 235.9 L 132.1 235.9 L 132.1 229.6 L 21 229.6 L 21 229.6 C 10.8 227.7 2 218.6 2 208 L 2 25 C 2 12.6 12.6 2 25 2 L 138 2 C 149.7 2 159 11.3 159 23 L 159 138 L 165.4 138 C 169.6 138 173.20000000000002 140.5 174.6 144.5 L 208 254 z M 87.7 214.6 C 87.7 211.4 85.3 209 82.10000000000001 209 C 79.10000000000001 209 76.50000000000001 211.6 76.50000000000001 214.6 C 76.50000000000001 217.79999999999998 78.90000000000002 220.2 82.10000000000001 220.2 C 85.2 220.2 87.5 217.8 87.7 214.6 z M 144.2 158 L 125.29999999999998 158 C 119.79999999999998 158 115.29999999999998 153.5 115.29999999999998 148 C 115.29999999999998 142.5 119.79999999999998 138 125.29999999999998 138 L 144 138 L 144 31 L 18 31 L 18 200 L 144.2 200 L 144.2 158 z M 108.8 133.9 L 36.8 133.9 L 36.8 145.20000000000002 L 108.89999999999999 145.20000000000002 L 108.89999999999999 133.9 z M 126.7 162.3 L 37.4 162.3 L 37.4 173.60000000000002 L 126.6 173.60000000000002 L 126.6 162.3 z M 75.7 80.7 L 36.8 80.7 L 36.8 91.10000000000001 L 75.69999999999999 91.10000000000001 L 75.69999999999999 80.7 z M 126 105.5 L 36.8 105.5 L 36.8 116.8 L 126 116.8 L 126 105.5 z" stroke-linecap="round" />
</g>
<g transform="matrix(NaN NaN NaN NaN 0 0)"  >
<g style=""   >
</g>
</g>
</svg>