<svg xmlns="http://www.w3.org/2000/svg" viewBox="0 0 24 24" fill="none" stroke="#e3e3e3" stroke-width="2" stroke-linecap="round" stroke-linejoin="round"><g id="SVGRepo_bgCarrier" stroke-width="0"></g><g id="SVGRepo_tracerCarrier" stroke-linecap="round" stroke-linejoin="round"></g><g id="SVGRepo_iconCarrier"> <path d="M16 4h2a2 2 0 012 2v14a2 2 0 01-2 2H6a2 2 0 01-2-2V6a2 2 0 012-2h2"></path> <path d="M15 2H9a1 1 0 00-1 1v2a1 1 0 001 1h6a1 1 0 001-1V3a1 1 0 00-1-1z"></path> <path d="M9 13l2 2 4-4"></path> </g></svg>